#!OML:ASF F:\VICON\USERDATA\INSTALL\Justin_Nancy\Justin_Nancy.ASF
:FULLY-SPECIFIED
:DEGREES
160
root -0.677686 17.537 28.3475 -3.29711 -1.27572 -1.22338
lowerback 8.3251 -0.279097 2.3862
upperback -0.689137 0.0354292 3.09348
thorax -5.39811 -0.00549239 1.87986
lowerneck -17.5062 -3.40475 -10.057
upperneck 19.109 -3.19414 5.49548
head 9.15402 -1.63657 3.13741
rclavicle 8.19987e-016 2.38542e-014
rhumerus -34.6438 -1.63454 -80.5915
rradius 64.361
rwrist -0.868969
rhand -14.8852 19.6675
rfingers 7.12502
rthumb 11.2755 -10.0095
lclavicle 8.19987e-016 2.38542e-014
lhumerus -52.0512 33.3664 62.9713
lradius 17.9773
lwrist -15.0121
lhand -16.6548 26.0863
lfingers 7.12502
lthumb 9.5684 55.8491
rfemur -11.2673 5.49432 22.3732
rtibia 35.5066
rfoot -8.17792 -1.43715
rtoes -3.01105
lfemur -19.3564 -4.11374 -19.2403
ltibia 36.4486
lfoot -2.64343 4.31124
ltoes -11.1377
161
root -0.656845 17.5473 28.4284 -3.06457 -1.36079 -1.26196
lowerback 8.45074 -0.252036 2.42692
upperback -0.848447 0.0882442 3.09788
thorax -5.63764 0.0184028 1.85817
lowerneck -17.6456 -3.40454 -9.92076
upperneck 19.3091 -3.18764 5.34459
head 9.24339 -1.64114 3.06495
rclavicle 6.83322e-015 3.49861e-014
rhumerus -34.6589 -2.52669 -80.5188
rradius 64.6097
rwrist -0.991197
rhand -15.3174 19.7441
rfingers 7.12502
rthumb 10.8586 -9.95516
lclavicle 6.83322e-015 3.49861e-014
lhumerus -52.4099 33.2933 62.7374
lradius 17.8387
lwrist -15.7065
lhand -16.421 26.9456
lfingers 7.12502
lthumb 9.79395 56.6979
rfemur -11.2181 5.77811 22.358
rtibia 35.4887
rfoot -8.29152 -1.54165
rtoes -2.99606
lfemur -19.2254 -4.3665 -19.3562
ltibia 36.3152
lfoot -3.32898 5.23651
ltoes -12.9598
162
root -0.634915 17.5609 28.513 -2.77824 -1.33299 -1.21971
lowerback 8.35272 -0.238168 2.39
upperback -1.0489 0.106693 3.09785
thorax -5.79333 0.0279094 1.87829
lowerneck -17.5344 -3.4624 -9.87602
upperneck 19.3861 -3.25417 5.16845
head 9.25241 -1.69093 2.98831
rclavicle 8.32411e-015 -9.54166e-015
rhumerus -34.9499 -3.32362 -80.3407
rradius 64.8357
rwrist -1.45407
rhand -15.7329 19.96
rfingers 7.12502
rthumb 10.4578 -9.75987
lclavicle 8.32411e-015 -9.54166e-015
lhumerus -52.8579 33.16 62.5407
lradius 17.7661
lwrist -16.3441
lhand -16.4458 26.8678
lfingers 7.12502
lthumb 9.77004 56.6211
rfemur -11.1567 5.94153 22.2283
rtibia 35.4481
rfoot -8.43864 -1.66509
rtoes -2.62368
lfemur -19.1875 -4.33345 -19.6086
ltibia 36.2375
lfoot -3.85911 5.66716
ltoes -13.8537
163
root -0.616416 17.5725 28.6 -2.55727 -1.3932 -1.15288
lowerback 8.19621 -0.220895 2.22864
upperback -1.19069 0.114546 3.14526
thorax -5.85419 0.0376192 2.01826
lowerneck -17.3646 -3.42347 -9.92919
upperneck 19.45 -3.20094 5.14929
head 9.24018 -1.67543 2.9993
rclavicle 1.49089e-015 1.66979e-014
rhumerus -35.1682 -4.0929 -80.1903
rradius 64.8165
rwrist -2.21305
rhand -16.1208 20.2832
rfingers 7.12502
rthumb 10.0836 -9.45519
lclavicle 1.49089e-015 1.66979e-014
lhumerus -53.1726 32.7649 62.8394
lradius 18.0597
lwrist -16.2405
lhand -16.0187 26.3729
lfingers 7.12502
lthumb 10.1821 56.1065
rfemur -11.0583 6.26616 22.1092
rtibia 35.4006
rfoot -8.52723 -1.85851
rtoes -2.33545
lfemur -19.0957 -4.20431 -19.8828
ltibia 36.2094
lfoot -3.91235 6.00292
ltoes -12.9891
164
root -0.601568 17.5766 28.6825 -2.42229 -1.54132 -0.952778
lowerback 7.92799 -0.130244 1.89791
upperback -1.07908 0.185573 3.13045
thorax -5.58603 0.083493 2.17566
lowerneck -17.3875 -3.42287 -9.90075
upperneck 19.278 -3.19915 5.14169
head 9.18376 -1.6702 2.98988
rclavicle -6.75868e-015 -1.51076e-014
rhumerus -34.9651 -5.07715 -80.0934
rradius 64.6517
rwrist -2.89431
rhand -16.6414 20.3163
rfingers 7.12502
rthumb 9.58139 -9.44588
lclavicle -6.75868e-015 -1.51076e-014
lhumerus -52.791 32.3983 63.5519
lradius 18.3105
lwrist -15.9102
lhand -15.5829 26.6655
lfingers 7.12502
lthumb 10.6025 56.3781
rfemur -10.9356 6.59527 21.8696
rtibia 35.3977
rfoot -8.62667 -2.00365
rtoes -2.02706
lfemur -18.8664 -3.70193 -20.302
ltibia 36.1588
lfoot -3.67752 6.09518
ltoes -11.3941
165
root -0.586325 17.5814 28.7664 -2.26534 -1.55296 -0.817079
lowerback 7.51738 -0.0683145 1.67988
upperback -0.91141 0.224434 3.12116
thorax -5.17854 0.109161 2.27856
lowerneck -17.4879 -3.49217 -10.0183
upperneck 19.1396 -3.27544 5.26081
head 9.16461 -1.69793 3.03834
rclavicle 6.63444e-015 -2.62396e-014
rhumerus -34.7272 -6.11384 -79.9732
rradius 64.3411
rwrist -3.36086
rhand -16.8279 20.565
rfingers 7.12502
rthumb 9.40135 -9.20535
lclavicle 6.63444e-015 -2.62396e-014
lhumerus -52.4474 32.5771 63.7299
lradius 18.2168
lwrist -16.2266
lhand -14.9039 27.2405
lfingers 7.12502
lthumb 11.2574 56.9185
rfemur -10.7914 6.57596 21.6606
rtibia 35.4216
rfoot -8.84975 -1.96695
rtoes -1.74942
lfemur -18.6126 -3.08596 -20.6607
ltibia 36.0753
lfoot -3.37768 5.99674
ltoes -8.93016
166
root -0.57375 17.5944 28.8498 -2.03563 -1.58068 -0.660901
lowerback 7.25342 -0.0039679 1.35304
upperback -0.936998 0.2732 3.14658
thorax -5.05859 0.143047 2.48204
lowerneck -17.4941 -3.52672 -10.079
upperneck 19.1421 -3.29918 5.23128
head 9.16964 -1.71662 3.03475
rclavicle -3.15571e-015 4.77083e-014
rhumerus -34.7958 -7.15248 -79.7813
rradius 63.9307
rwrist -3.85636
rhand -16.878 21.5068
rfingers 7.12502
rthumb 9.35309 -8.26574
lclavicle -3.15571e-015 4.77083e-014
lhumerus -52.4598 32.6541 63.8097
lradius 18.3086
lwrist -16.4382
lhand -14.4565 27.0812
lfingers 7.12502
lthumb 11.6889 56.7351
rfemur -10.7523 6.57331 21.4425
rtibia 35.4799
rfoot -9.08299 -1.95611
rtoes -2.29604
lfemur -18.4915 -2.46748 -20.9772
ltibia 35.9301
lfoot -3.22089 5.79719
ltoes -7.74085
